<svg xmlns="http://www.w3.org/2000/svg" viewBox="0 0 1200 1200" role="img" aria-hidden="true">
  <defs>
    <linearGradient id="hr-screen" x1="0.12" y1="0.02" x2="0.94" y2="1">
      <stop offset="0" stop-color="#8fc4df" stop-opacity="0.2"/>
      <stop offset="0.52" stop-color="#4f8fb8" stop-opacity="0.16"/>
      <stop offset="1" stop-color="#151a20" stop-opacity="0.32"/>
    </linearGradient>
    <linearGradient id="hr-line" x1="0" y1="0" x2="1" y2="0">
      <stop offset="0" stop-color="#21d8ff" stop-opacity="0.72"/>
      <stop offset="1" stop-color="#4f8fb8" stop-opacity="0.18"/>
    </linearGradient>
    <filter id="hr-soft-shadow" x="-20%" y="-20%" width="140%" height="150%">
      <feDropShadow dx="-18" dy="34" stdDeviation="34" flood-color="#0d1824" flood-opacity="0.32"/>
    </filter>
  </defs>
  <g filter="url(#hr-soft-shadow)" transform="translate(145 165)">
    <polygon points="170,38 880,132 794,742 90,604" fill="url(#hr-screen)" stroke="#6ea7c6" stroke-opacity="0.5" stroke-width="2"/>
    <polygon points="170,38 880,132 794,196 90,104" fill="#4f8fb8" fill-opacity="0.12"/>
    <g fill="#d9eef7" fill-opacity="0.42">
      <circle cx="147" cy="88" r="8"/>
      <circle cx="176" cy="92" r="8"/>
      <circle cx="205" cy="96" r="8"/>
    </g>
    <g stroke="#8fc4df" stroke-opacity="0.34">
      <path d="M136 222 812 326"/>
      <path d="M121 334 796 452"/>
      <path d="M106 448 779 578"/>
    </g>
    <g transform="translate(160 230)">
      <polygon points="0,0 570,86 556,174 0,76" fill="#101a24" fill-opacity="0.42" stroke="#6ea7c6" stroke-opacity="0.28"/>
      <polygon points="18,19 86,29 76,86 10,74" fill="#4f8fb8" fill-opacity="0.42"/>
      <polygon points="116,32 386,72 384,84 114,44" fill="url(#hr-line)"/>
      <polygon points="116,62 296,90 294,102 114,74" fill="#d9eef7" fill-opacity="0.22"/>
      <text x="524" y="104" fill="#d9eef7" fill-opacity="0.68" font-size="32" font-family="Inter, Arial, sans-serif">94</text>
    </g>
    <g transform="translate(138 350)">
      <polygon points="0,0 570,100 556,188 0,78" fill="#101a24" fill-opacity="0.34" stroke="#6ea7c6" stroke-opacity="0.24"/>
      <polygon points="18,19 86,31 76,88 10,74" fill="#8fc4df" fill-opacity="0.34"/>
      <polygon points="116,34 396,82 394,94 114,46" fill="url(#hr-line)" opacity="0.72"/>
      <polygon points="116,64 272,94 270,106 114,76" fill="#d9eef7" fill-opacity="0.18"/>
      <text x="524" y="116" fill="#d9eef7" fill-opacity="0.55" font-size="32" font-family="Inter, Arial, sans-serif">87</text>
    </g>
    <g transform="translate(116 472)">
      <polygon points="0,0 570,112 556,200 0,80" fill="#101a24" fill-opacity="0.3" stroke="#6ea7c6" stroke-opacity="0.22"/>
      <polygon points="18,19 86,33 76,90 10,74" fill="#4f8fb8" fill-opacity="0.3"/>
      <polygon points="116,36 356,86 354,98 114,48" fill="url(#hr-line)" opacity="0.58"/>
      <polygon points="116,66 250,96 248,108 114,78" fill="#d9eef7" fill-opacity="0.16"/>
      <text x="524" y="126" fill="#d9eef7" fill-opacity="0.48" font-size="32" font-family="Inter, Arial, sans-serif">82</text>
    </g>
  </g>
</svg>
