<svg xmlns="http://www.w3.org/2000/svg" viewBox="0 0 1200 1200" role="img" aria-hidden="true">
  <defs>
    <linearGradient id="tr-bg" x1="0.2" y1="0.1" x2="1" y2="1">
      <stop offset="0" stop-color="#273039"/>
      <stop offset="1" stop-color="#11161c"/>
    </linearGradient>
    <radialGradient id="tr-glow" cx="0.34" cy="0.3" r="0.35">
      <stop offset="0" stop-color="#6d7a84" stop-opacity="0.16"/>
      <stop offset="1" stop-color="#6d7a84" stop-opacity="0"/>
    </radialGradient>
    <linearGradient id="bar-grad" x1="0" y1="1" x2="0" y2="0">
      <stop offset="0" stop-color="#6f7b85" stop-opacity="0.2"/>
      <stop offset="1" stop-color="#c9cfd2" stop-opacity="0.72"/>
    </linearGradient>
  </defs>
  <rect width="1200" height="1200" fill="url(#tr-bg)"/>
  <rect width="1200" height="1200" fill="url(#tr-glow)"/>
  <g transform="translate(120 150)">
    <text x="0" y="0" fill="#8e959b" font-size="19" letter-spacing="2.5" font-family="Inter, Arial, sans-serif">MARKET SIGNAL</text>
    <text x="0" y="86" fill="#b9c0c4" font-size="68" font-weight="300" font-family="Inter, Arial, sans-serif">+18.42%</text>
    <g transform="translate(0 150)">
      <rect x="0" y="0" width="960" height="420" fill="none" stroke="#ffffff" stroke-opacity="0.14"/>
      <g opacity="0.22" stroke="#ffffff">
        <path d="M0 90H960M0 180H960M0 270H960M0 360H960" stroke-width="1"/>
      </g>
      <g transform="translate(34 42)">
        <rect x="0" y="258" width="60" height="120" fill="url(#bar-grad)"/>
        <rect x="88" y="210" width="60" height="168" fill="url(#bar-grad)"/>
        <rect x="176" y="232" width="60" height="146" fill="url(#bar-grad)"/>
        <rect x="264" y="130" width="60" height="248" fill="url(#bar-grad)"/>
        <rect x="352" y="170" width="60" height="208" fill="url(#bar-grad)"/>
        <rect x="440" y="72" width="60" height="306" fill="url(#bar-grad)"/>
        <rect x="528" y="104" width="60" height="274" fill="url(#bar-grad)"/>
        <rect x="616" y="20" width="60" height="358" fill="url(#bar-grad)"/>
        <rect x="704" y="44" width="60" height="334" fill="url(#bar-grad)"/>
        <rect x="792" y="0" width="60" height="378" fill="url(#bar-grad)"/>
      </g>
      <g transform="translate(44 300) rotate(-8)">
        <line x1="0" y1="0" x2="860" y2="0" stroke="#c8a28d" stroke-opacity="0.48" stroke-width="2"/>
        <g fill="#1b2026" stroke="#c8a28d" stroke-opacity="0.65">
          <circle cx="0" cy="0" r="6"/>
          <circle cx="220" cy="0" r="6"/>
          <circle cx="430" cy="0" r="6"/>
          <circle cx="640" cy="0" r="6"/>
          <circle cx="860" cy="0" r="6"/>
        </g>
      </g>
    </g>
  </g>
</svg>
