<svg xmlns="http://www.w3.org/2000/svg" viewBox="0 0 1200 1200" role="img" aria-hidden="true">
  <defs>
    <linearGradient id="hr-bg" x1="0.2" y1="0" x2="1" y2="1">
      <stop offset="0" stop-color="#3a4048"/>
      <stop offset="1" stop-color="#171d24"/>
    </linearGradient>
    <radialGradient id="hr-glow" cx="0.75" cy="0.18" r="0.4">
      <stop offset="0" stop-color="#c8a28d" stop-opacity="0.16"/>
      <stop offset="1" stop-color="#c8a28d" stop-opacity="0"/>
    </radialGradient>
    <linearGradient id="hr-avatar-1" x1="0" y1="0" x2="1" y2="1">
      <stop offset="0" stop-color="#8b8f95"/>
      <stop offset="1" stop-color="#464c54"/>
    </linearGradient>
    <linearGradient id="hr-avatar-2" x1="0" y1="0" x2="1" y2="1">
      <stop offset="0" stop-color="#aaa098"/>
      <stop offset="1" stop-color="#5f5653"/>
    </linearGradient>
    <linearGradient id="hr-avatar-3" x1="0" y1="0" x2="1" y2="1">
      <stop offset="0" stop-color="#7f8993"/>
      <stop offset="1" stop-color="#3f474f"/>
    </linearGradient>
  </defs>
  <rect width="1200" height="1200" fill="url(#hr-bg)"/>
  <rect width="1200" height="1200" fill="url(#hr-glow)"/>
  <g transform="translate(740 130) rotate(-4 0 0)">
    <rect x="0" y="0" width="460" height="620" rx="12" fill="#171c22" fill-opacity="0.78" stroke="#ffffff" stroke-opacity="0.16"/>
    <g transform="translate(24 24)">
      <circle cx="0" cy="0" r="6" fill="#ffffff" fill-opacity="0.28"/>
      <circle cx="20" cy="0" r="6" fill="#ffffff" fill-opacity="0.28"/>
      <circle cx="40" cy="0" r="6" fill="#ffffff" fill-opacity="0.28"/>
    </g>
    <g transform="translate(24 92)">
      <rect x="0" y="0" width="412" height="138" rx="28" fill="#22272e"/>
      <rect x="0" y="180" width="412" height="138" rx="28" fill="#22272e"/>
      <rect x="0" y="360" width="412" height="138" rx="28" fill="#22272e"/>
      <g transform="translate(22 22)">
        <circle cx="24" cy="22" r="22" fill="url(#hr-avatar-1)"/>
        <rect x="62" y="10" width="180" height="10" rx="5" fill="#ffffff" fill-opacity="0.34"/>
        <rect x="62" y="32" width="110" height="10" rx="5" fill="#ffffff" fill-opacity="0.18"/>
        <text x="366" y="28" text-anchor="end" fill="#aeb5b8" font-size="24" font-family="Inter, Arial, sans-serif">94</text>
      </g>
      <g transform="translate(22 202)">
        <circle cx="24" cy="22" r="22" fill="url(#hr-avatar-2)"/>
        <rect x="62" y="10" width="180" height="10" rx="5" fill="#ffffff" fill-opacity="0.34"/>
        <rect x="62" y="32" width="110" height="10" rx="5" fill="#ffffff" fill-opacity="0.18"/>
        <text x="366" y="28" text-anchor="end" fill="#aeb5b8" font-size="24" font-family="Inter, Arial, sans-serif">87</text>
      </g>
      <g transform="translate(22 382)">
        <circle cx="24" cy="22" r="22" fill="url(#hr-avatar-3)"/>
        <rect x="62" y="10" width="180" height="10" rx="5" fill="#ffffff" fill-opacity="0.34"/>
        <rect x="62" y="32" width="110" height="10" rx="5" fill="#ffffff" fill-opacity="0.18"/>
        <text x="366" y="28" text-anchor="end" fill="#aeb5b8" font-size="24" font-family="Inter, Arial, sans-serif">82</text>
      </g>
    </g>
  </g>
</svg>
